<?xml version="1.0" encoding="UTF-8" standalone="no"?>
<!DOCTYPE svg PUBLIC "-//W3C//DTD SVG 1.1//EN" "http://www.w3.org/Graphics/SVG/1.1/DTD/svg11.dtd">
<svg width="100%" height="100%" viewBox="0 0 292 292" version="1.1" xmlns="http://www.w3.org/2000/svg" xmlns:xlink="http://www.w3.org/1999/xlink" xml:space="preserve" xmlns:serif="http://www.serif.com/" style="fill-rule:evenodd;clip-rule:evenodd;stroke-linejoin:round;stroke-miterlimit:2;">
    <g transform="matrix(1,0,0,1,-65.606,-48.467)">
        <g transform="matrix(1,0,0,1,-40,-52)">
            <g transform="matrix(0,-1,-1,0,251.517,110.21)">
                <path d="M-136.168,-136.168C-211.371,-136.168 -272.335,-75.203 -272.335,0C-272.335,75.203 -211.371,136.168 -136.168,136.168C-60.964,136.168 0,75.203 0,0C0,-75.203 -60.964,-136.168 -136.168,-136.168" style="fill:white;fill-rule:nonzero;"/>
            </g>
        </g>
        <g transform="matrix(1,0,0,1,-40,-52)">
            <g transform="matrix(1,0,0,1,251.517,372.801)">
                <path d="M0,-252.847C-69.71,-252.847 -126.424,-196.134 -126.424,-126.424C-126.424,-56.713 -69.71,0 0,0C69.71,0 126.423,-56.713 126.423,-126.424C126.423,-196.134 69.71,-252.847 0,-252.847M0,19.487C-80.456,19.487 -145.911,-45.968 -145.911,-126.424C-145.911,-206.879 -80.456,-272.334 0,-272.334C80.456,-272.334 145.911,-206.879 145.911,-126.424C145.911,-45.968 80.456,19.487 0,19.487" style="fill-rule:nonzero;"/>
            </g>
        </g>
        <g transform="matrix(1,0,0,1,-40,-52)">
            <g transform="matrix(1,0,0,1,251.517,316.705)">
                <path d="M0,38.296C-35.482,38.296 -69.682,25.406 -96.3,2C-103.175,-4.045 -109.425,-10.681 -114.989,-17.8C-95.009,25.766 -50.981,56.096 0,56.096C50.981,56.096 95.01,25.766 114.989,-17.8C109.425,-10.681 103.176,-4.045 96.3,2C69.682,25.406 35.482,38.296 0,38.296" style="fill:rgb(172,194,209);fill-rule:nonzero;"/>
            </g>
        </g>
        <g transform="matrix(1,0,0,1,-40,-52)">
            <g transform="matrix(1,0,0,1,251.517,246.377)">
                <path d="M0,-136.167C-75.203,-136.167 -136.167,-75.203 -136.167,0L136.167,0C136.167,-75.203 75.203,-136.167 0,-136.167" style="fill:rgb(239,28,37);fill-rule:nonzero;"/>
            </g>
        </g>
        <g transform="matrix(1,0,0,1,-40,-52)">
            <g transform="matrix(1,0,0,1,125.465,119.954)">
                <path d="M0,116.68L252.104,116.68C247.116,51.502 192.486,0 126.052,0C59.618,0 4.988,51.502 0,116.68M271.963,136.167L-19.859,136.167L-19.859,126.424C-19.859,45.968 45.597,-19.487 126.052,-19.487C206.508,-19.487 271.963,45.968 271.963,126.424L271.963,136.167Z" style="fill-rule:nonzero;"/>
            </g>
        </g>
        <g transform="matrix(1,0,0,1,-40,-52)">
            <g transform="matrix(0,-1,-1,0,251.517,209.09)">
                <path d="M-37.287,-37.287C-57.881,-37.287 -74.576,-20.593 -74.576,0.001C-74.576,20.594 -57.881,37.287 -37.287,37.287C-16.694,37.287 0.001,20.594 0.001,0.001C0.001,-20.593 -16.694,-37.287 -37.287,-37.287" style="fill:white;fill-rule:nonzero;"/>
            </g>
        </g>
        <g transform="matrix(1,0,0,1,-40,-52)">
            <g transform="matrix(1,0,0,1,251.517,273.922)">
                <path d="M0,-55.088C-15.188,-55.088 -27.544,-42.732 -27.544,-27.544C-27.544,-12.356 -15.188,0 0,0C15.188,0 27.544,-12.356 27.544,-27.544C27.544,-42.732 15.188,-55.088 0,-55.088M0,19.487C-25.934,19.487 -47.032,-1.611 -47.032,-27.544C-47.032,-53.477 -25.934,-74.575 0,-74.575C25.933,-74.575 47.031,-53.477 47.031,-27.544C47.031,-1.611 25.933,19.487 0,19.487" style="fill-rule:nonzero;"/>
            </g>
        </g>
    </g>
</svg>
